<?xml version="1.0" encoding="UTF-8"?>
<svg xmlns="http://www.w3.org/2000/svg" xmlns:xlink="http://www.w3.org/1999/xlink" width="900px" height="600px" viewBox="0 0 900 600" version="1.1">
<g id="surface1">
<path style=" stroke:none;fill-rule:nonzero;fill:rgb(73.333335%,73.333335%,73.333335%);fill-opacity:1;" d="M 0 0 L 0 200 L 900 200 L 900 0 Z M 0 0 "/>
<path style=" stroke:none;fill-rule:nonzero;fill:rgb(83.137256%,83.137256%,83.137256%);fill-opacity:1;" d="M 0 200 L 0 400 L 900 400 L 900 200 Z M 0 200 "/>
<path style=" stroke:none;fill-rule:nonzero;fill:rgb(89.019608%,89.019608%,89.019608%);fill-opacity:1;" d="M 0 400 L 0 600 L 900 600 L 900 400 Z M 0 400 "/>
<path style=" stroke:none;fill-rule:nonzero;fill:rgb(100%,100%,100%);fill-opacity:1;" d="M 458.636719 371.929688 L 411.503906 371.929688 C 411.175781 370.777344 409.652344 366.585938 406.941406 359.347656 C 404.226562 352.109375 402.867188 345.773438 402.867188 340.34375 C 402.867188 329.980469 404.308594 320.027344 407.1875 310.488281 C 410.066406 300.945312 414.300781 292.019531 419.894531 283.714844 C 425.488281 275.40625 436.550781 262.121094 453.085938 243.863281 C 469.617188 225.601562 477.882812 210.550781 477.882812 198.703125 C 477.882812 175.671875 462.832031 164.15625 432.726562 164.15625 C 418.085938 164.15625 402.785156 171.480469 386.828125 186.121094 L 361.414062 138.496094 C 382.632812 121.878906 410.519531 113.570312 445.066406 113.570312 C 471.714844 113.570312 493.964844 120.976562 511.8125 135.78125 C 529.664062 150.585938 538.585938 170.246094 538.585938 194.757812 C 538.585938 211.535156 535.335938 225.726562 528.839844 237.324219 C 522.339844 248.921875 510.910156 262.535156 494.539062 278.160156 C 478.171875 293.789062 467.519531 306.785156 462.585938 317.148438 C 457.648438 327.515625 455.179688 338.863281 455.183594 351.203125 C 455.179688 353.835938 456.332031 360.746094 458.636719 371.929688 Z M 437.660156 405.488281 C 448.847656 405.492188 458.347656 409.4375 466.164062 417.335938 C 473.976562 425.230469 477.882812 434.773438 477.882812 445.960938 C 477.882812 457.144531 473.976562 466.6875 466.164062 474.582031 C 458.347656 482.480469 448.847656 486.429688 437.660156 486.429688 C 426.476562 486.429688 416.933594 482.480469 409.039062 474.582031 C 401.140625 466.6875 397.191406 457.144531 397.191406 445.960938 C 397.191406 434.773438 401.140625 425.230469 409.039062 417.335938 C 416.933594 409.4375 426.476562 405.492188 437.660156 405.488281 Z M 437.660156 405.488281 "/>
</g>
</svg>
